<svg xmlns="http://www.w3.org/2000/svg" width="543" height="610" viewBox="0 0 543 610">
  <g id="Organe_top_shape" data-name="Organe top shape" transform="translate(88 159)">
    <path id="Subtraction_2" data-name="Subtraction 2" d="M7657,877h-67a16.991,16.991,0,0,1-16.884-15h-.217a87.437,87.437,0,0,0-172.8,0h-.219A16.988,16.988,0,0,1,7383,877h-67a16.991,16.991,0,0,1-16.885-15H7299V495h375V792.747c0,.037,0,.075,0,.113v.012c0,.042,0,.085,0,.128v67c0,.043,0,.085,0,.128v.012c0,.038,0,.076,0,.113V862h-.116A16.988,16.988,0,0,1,7657,877Z" transform="translate(-7299 -471)" fill="#4a4b4d" opacity="0.28"/>
    <path id="Shaped_subtraction" data-name="Shaped subtraction" d="M7657,877h-67a16.991,16.991,0,0,1-16.884-15h-.216a87.438,87.438,0,0,0-172.8,0h-.219A16.988,16.988,0,0,1,7383,877h-67a16.991,16.991,0,0,1-16.885-15H7299V495h375V792.747c0,.037,0,.075,0,.113v.012c0,.042,0,.085,0,.128v67c0,.043,0,.085,0,.128v.012c0,.038,0,.076,0,.113V862h-.116A16.988,16.988,0,0,1,7657,877Z" transform="translate(-7299 -495)" fill="#fc6011"/>
    <g id="Group_8533" data-name="Group 8533" transform="translate(0 0)">
      <g id="background_objects" data-name="background objects">
        <circle id="Ellipse_3" data-name="Ellipse 3" cx="89" cy="89" r="89" transform="translate(-61 -55)" fill="#fff" opacity="0.14"/>
        <circle id="Ellipse_5" data-name="Ellipse 5" cx="144.5" cy="144.5" r="144.5" transform="translate(166 -159)" fill="#fff" opacity="0.14"/>
        <circle id="Ellipse_4" data-name="Ellipse 4" cx="52.5" cy="52.5" r="52.5" transform="translate(21 77)" fill="#fff" opacity="0.14"/>
        <circle id="Ellipse_6" data-name="Ellipse 6" cx="9" cy="9" r="9" transform="translate(151 118)" fill="#fff" opacity="0.21"/>
        <circle id="Ellipse_8" data-name="Ellipse 8" cx="6.5" cy="6.5" r="6.5" transform="translate(153 219)" fill="#fff" opacity="0.21"/>
        <circle id="Ellipse_9" data-name="Ellipse 9" cx="10.5" cy="10.5" r="10.5" transform="translate(361 328)" fill="#fff" opacity="0.21"/>
        <circle id="Ellipse_7" data-name="Ellipse 7" cx="14.5" cy="14.5" r="14.5" transform="translate(224 130)" fill="#fff" opacity="0.21"/>
        <circle id="Ellipse_2" data-name="Ellipse 2" cx="116" cy="116" r="116" transform="translate(-88 219)" fill="#fff" opacity="0.14"/>
        <g id="Group_911" data-name="Group 911" transform="translate(213.514 114.176)" opacity="0.18">
          <path id="Path_2987" data-name="Path 2987" d="M210.606,142c0,4.172-3.712,7.577-8.241,7.577H18.727c-4.529,0-8.241-3.405-8.241-7.577,0-4.155,3.712-7.543,8.241-7.543H202.365C206.894,134.453,210.606,137.841,210.606,142ZM120.158,46.985a9.615,9.615,0,0,0-19.207-.051,76.628,76.628,0,0,1,19.207.051Zm74.817,80.777H26.117a84.691,84.691,0,0,1,168.858,0ZM100.883,57.15S53.548,67.468,39.415,119.878h17.9S67.22,76.169,100.883,57.15Z" transform="translate(0 0)" fill="#fff"/>
        </g>
      </g>
      <g id="Group_8559" data-name="Group 8559">
        <g id="Group_8558" data-name="Group 8558">
          <g id="Group_8557" data-name="Group 8557">
            <g id="Group_8556" data-name="Group 8556">
              <g id="Group_8555" data-name="Group 8555">
                <g id="Group_8554" data-name="Group 8554">
                  <g id="Group_8553" data-name="Group 8553">
                    <g id="Group_8552" data-name="Group 8552">
                      <g id="Group_8551" data-name="Group 8551">
                        <g id="Group_8550" data-name="Group 8550">
                          <g id="Group_8549" data-name="Group 8549">
                            <g id="Group_8548" data-name="Group 8548">
                              <g id="Group_8547" data-name="Group 8547">
                                <g id="Group_8546" data-name="Group 8546">
                                  <g id="Group_8545" data-name="Group 8545">
                                    <g id="Group_8544" data-name="Group 8544">
                                      <g id="Group_8543" data-name="Group 8543">
                                        <g id="Group_8542" data-name="Group 8542">
                                          <g id="Group_8541" data-name="Group 8541">
                                            <g id="Group_8540" data-name="Group 8540">
                                              <g id="Group_8539" data-name="Group 8539">
                                                <g id="Group_8538" data-name="Group 8538">
                                                  <g id="Group_8537" data-name="Group 8537">
                                                    <g id="Group_8536" data-name="Group 8536">
                                                      <g id="Group_8535" data-name="Group 8535">
                                                        <g id="Group_8534" data-name="Group 8534">
                                                          <path id="Subtraction_3" data-name="Subtraction 3" d="M7657,877h-67a16.987,16.987,0,0,1-16.882-15h-.216a87.438,87.438,0,0,0-172.8,0h-.217A16.992,16.992,0,0,1,7383,877h-67a16.988,16.988,0,0,1-16.883-15H7299V495h375V792.747c0,.083,0,.168,0,.252v67c0,.085,0,.169,0,.252V862h-.113A16.993,16.993,0,0,1,7657,877Z" transform="translate(-7299 -495)" fill="#4a4b4d" opacity="0.35"/>
                                                        </g>
                                                      </g>
                                                    </g>
                                                  </g>
                                                </g>
                                              </g>
                                            </g>
                                          </g>
                                        </g>
                                      </g>
                                    </g>
                                  </g>
                                </g>
                              </g>
                            </g>
                          </g>
                        </g>
                      </g>
                    </g>
                  </g>
                </g>
              </g>
            </g>
          </g>
        </g>
      </g>
    </g>
  </g>
</svg>
