<?xml version="1.0" encoding="UTF-8"?>
<!DOCTYPE svg PUBLIC "-//W3C//DTD SVG 1.1//EN" "http://www.w3.org/Graphics/SVG/1.1/DTD/svg11.dtd">
<svg xmlns="http://www.w3.org/2000/svg" version="1.1" width="102px" height="102px" style="shape-rendering:geometricPrecision; text-rendering:geometricPrecision; image-rendering:optimizeQuality; fill-rule:evenodd; clip-rule:evenodd" xmlns:xlink="http://www.w3.org/1999/xlink">
<g><path style="opacity:0.973" fill="#232222" d="M 40.5,-0.5 C 47.1667,-0.5 53.8333,-0.5 60.5,-0.5C 79.4361,4.43055 92.4361,16.0972 99.5,34.5C 96.0712,32.7486 92.4045,32.2486 88.5,33C 86.3757,35.5638 85.0424,38.3971 84.5,41.5C 82.4418,40.0669 80.1085,39.4003 77.5,39.5C 74.2092,33.2539 71.2092,26.9205 68.5,20.5C 68.3404,18.847 67.6737,17.5137 66.5,16.5C 66.1667,15.1667 65.8333,13.8333 65.5,12.5C 64.0726,9.23636 61.7392,6.73636 58.5,5C 52.0978,3.79177 46.0978,4.79177 40.5,8C 38,11.1667 35.5,14.3333 33,17.5C 31.7338,21.3951 31.2338,25.3951 31.5,29.5C 31.5,29.8333 31.5,30.1667 31.5,30.5C 30.1093,32.5714 28.276,34.2381 26,35.5C 24.2267,38.4181 22.7267,41.4181 21.5,44.5C 20.325,44.719 19.325,44.3857 18.5,43.5C 17.4724,36.4723 13.4724,32.4723 6.5,31.5C 5.20108,32.09 4.36775,33.09 4,34.5C 2.94112,39.1123 1.44112,43.4456 -0.5,47.5C -0.5,45.1667 -0.5,42.8333 -0.5,40.5C 5.50875,19.1579 19.1754,5.49124 40.5,-0.5 Z"/></g>
<g><path style="opacity:1" fill="#332926" d="M 65.5,12.5 C 63.6159,12.2882 62.2826,11.2882 61.5,9.5C 60.247,12.1836 59.247,14.8503 58.5,17.5C 58.106,15.2901 56.7727,13.9568 54.5,13.5C 53.791,12.596 52.791,12.2627 51.5,12.5C 51.6567,11.1266 51.49,9.79323 51,8.5C 48.087,11.2025 44.587,12.7025 40.5,13C 36.7549,18.206 33.7549,23.706 31.5,29.5C 31.2338,25.3951 31.7338,21.3951 33,17.5C 35.5,14.3333 38,11.1667 40.5,8C 46.0978,4.79177 52.0978,3.79177 58.5,5C 61.7392,6.73636 64.0726,9.23636 65.5,12.5 Z"/></g>
<g><path style="opacity:1" fill="#724934" d="M 65.5,12.5 C 65.8333,13.8333 66.1667,15.1667 66.5,16.5C 64.2275,13.6024 62.7275,13.9358 62,17.5C 61.6667,16.5 61.3333,15.5 61,14.5C 60.5014,18.1516 60.3347,21.8183 60.5,25.5C 58.8333,25.5 57.1667,25.5 55.5,25.5C 52.7405,22.1935 53.7405,20.5268 58.5,20.5C 58.5,19.5 58.5,18.5 58.5,17.5C 59.247,14.8503 60.247,12.1836 61.5,9.5C 62.2826,11.2882 63.6159,12.2882 65.5,12.5 Z"/></g>
<g><path style="opacity:1" fill="#d89d77" d="M 54.5,13.5 C 56.7727,13.9568 58.106,15.2901 58.5,17.5C 58.5,18.5 58.5,19.5 58.5,20.5C 53.7405,20.5268 52.7405,22.1935 55.5,25.5C 56.5676,26.4345 57.901,26.7678 59.5,26.5C 59.4306,31.4353 58.4306,36.1019 56.5,40.5C 53.7118,43.0748 51.0451,43.0748 48.5,40.5C 51.1844,39.897 53.5177,38.5636 55.5,36.5C 53.0197,35.5846 52.3531,34.0846 53.5,32C 52.552,31.5172 51.552,31.3505 50.5,31.5C 50.81,28.2869 50.4767,25.2869 49.5,22.5C 47.6208,21.6586 45.6208,21.3253 43.5,21.5C 43.6634,14.3604 47.33,11.6937 54.5,13.5 Z"/></g>
<g><path style="opacity:1" fill="#b57258" d="M 49.5,22.5 C 50.4767,25.2869 50.81,28.2869 50.5,31.5C 51.552,31.3505 52.552,31.5172 53.5,32C 52.3531,34.0846 53.0197,35.5846 55.5,36.5C 53.5177,38.5636 51.1844,39.897 48.5,40.5C 47.8333,40.5 47.1667,40.5 46.5,40.5C 45.2101,39.9423 44.3768,38.9423 44,37.5C 43.0642,33.8865 42.5642,30.2198 42.5,26.5C 44.861,26.3259 47.1944,25.9926 49.5,25.5C 49.5,24.5 49.5,23.5 49.5,22.5 Z"/></g>
<g><path style="opacity:1" fill="#9c633c" d="M 66.5,16.5 C 67.6737,17.5137 68.3404,18.847 68.5,20.5C 69.1003,23.3319 69.7669,26.1652 70.5,29C 69.8148,31.7952 69.3148,34.6285 69,37.5C 67.6219,31.8611 65.7885,26.5278 63.5,21.5C 62.5037,27.7985 62.1703,34.1318 62.5,40.5C 61.8826,40.6107 61.3826,40.944 61,41.5C 60.6667,45.1667 60.3333,48.8333 60,52.5C 59.8283,47.7982 59.3283,43.1315 58.5,38.5C 57.7025,38.9569 57.3691,39.6236 57.5,40.5C 57.1667,40.5 56.8333,40.5 56.5,40.5C 58.4306,36.1019 59.4306,31.4353 59.5,26.5C 57.901,26.7678 56.5676,26.4345 55.5,25.5C 57.1667,25.5 58.8333,25.5 60.5,25.5C 60.3347,21.8183 60.5014,18.1516 61,14.5C 61.3333,15.5 61.6667,16.5 62,17.5C 62.7275,13.9358 64.2275,13.6024 66.5,16.5 Z"/></g>
<g><path style="opacity:1" fill="#784c34" d="M 39.5,30.5 C 41.8906,33.1623 42.8906,36.329 42.5,40C 42.3508,43.9399 41.6842,47.7732 40.5,51.5C 39.1147,52.6138 37.6147,53.6138 36,54.5C 35.5012,50.5138 35.3345,46.5138 35.5,42.5C 36.1143,38.8648 36.4476,35.1981 36.5,31.5C 37.609,31.4431 38.609,31.1098 39.5,30.5 Z"/></g>
<g><path style="opacity:1" fill="#402d29" d="M 31.5,30.5 C 31.6714,33.4877 30.3381,35.4877 27.5,36.5C 24.6444,42.0412 21.9778,47.5412 19.5,53C 18.365,53.7494 17.365,53.5827 16.5,52.5C 15.5857,50.3359 14.419,48.3359 13,46.5C 11.2438,47.5481 9.41044,47.5481 7.5,46.5C 6.83333,46.6667 6.16667,46.8333 5.5,47C 3.82157,49.9138 1.82157,52.4138 -0.5,54.5C -0.5,52.1667 -0.5,49.8333 -0.5,47.5C 1.44112,43.4456 2.94112,39.1123 4,34.5C 4.36775,33.09 5.20108,32.09 6.5,31.5C 13.4724,32.4723 17.4724,36.4723 18.5,43.5C 19.325,44.3857 20.325,44.719 21.5,44.5C 22.7267,41.4181 24.2267,38.4181 26,35.5C 28.276,34.2381 30.1093,32.5714 31.5,30.5 Z"/></g>
<g><path style="opacity:1" fill="#673a2d" d="M 99.5,34.5 C 99.8751,36.6976 100.542,38.6976 101.5,40.5C 101.5,43.8333 101.5,47.1667 101.5,50.5C 98.8797,46.5252 96.7131,42.1918 95,37.5C 92.5769,35.0062 90.2436,35.0062 88,37.5C 87.9633,39.9739 87.13,41.9739 85.5,43.5C 85.1667,42.8333 84.8333,42.1667 84.5,41.5C 85.0424,38.3971 86.3757,35.5638 88.5,33C 92.4045,32.2486 96.0712,32.7486 99.5,34.5 Z"/></g>
<g><path style="opacity:1" fill="#5d3c30" d="M 54.5,13.5 C 47.33,11.6937 43.6634,14.3604 43.5,21.5C 42.71,20.3915 42.21,19.0581 42,17.5C 40.5,20.5 39,23.5 37.5,26.5C 37.8029,28.1143 38.4695,29.4477 39.5,30.5C 38.609,31.1098 37.609,31.4431 36.5,31.5C 36.762,30.0222 36.4287,28.6888 35.5,27.5C 33.7435,41.7258 30.4102,55.3925 25.5,68.5C 24.484,65.8004 24.484,63.1337 25.5,60.5C 25.0302,59.537 24.3635,59.537 23.5,60.5C 23.852,57.4858 25.1854,54.9858 27.5,53C 27.3865,51.7202 26.7199,50.8869 25.5,50.5C 23.8035,51.3636 22.6368,52.6969 22,54.5C 21.3333,53.1667 20.6667,53.1667 20,54.5C 19.0572,57.2507 18.2239,59.9174 17.5,62.5C 17.9842,59.4334 16.8175,57.4334 14,56.5C 13.0546,56.9054 12.3879,57.572 12,58.5C 11.8184,55.7737 11.3184,53.1071 10.5,50.5C 8.80197,49.3192 7.1353,49.3192 5.5,50.5C 5.83333,51.1667 6.16667,51.8333 6.5,52.5C 4.2783,55.8272 3.11163,59.4939 3,63.5C 2.61742,64.056 2.11742,64.3893 1.5,64.5C 0.833333,63.1667 0.166667,61.8333 -0.5,60.5C -0.5,58.5 -0.5,56.5 -0.5,54.5C 1.82157,52.4138 3.82157,49.9138 5.5,47C 6.16667,46.8333 6.83333,46.6667 7.5,46.5C 9.41044,47.5481 11.2438,47.5481 13,46.5C 14.419,48.3359 15.5857,50.3359 16.5,52.5C 17.365,53.5827 18.365,53.7494 19.5,53C 21.9778,47.5412 24.6444,42.0412 27.5,36.5C 30.3381,35.4877 31.6714,33.4877 31.5,30.5C 31.5,30.1667 31.5,29.8333 31.5,29.5C 33.7549,23.706 36.7549,18.206 40.5,13C 44.587,12.7025 48.087,11.2025 51,8.5C 51.49,9.79323 51.6567,11.1266 51.5,12.5C 52.791,12.2627 53.791,12.596 54.5,13.5 Z"/></g>
<g><path style="opacity:1" fill="#73462d" d="M 68.5,20.5 C 71.2092,26.9205 74.2092,33.2539 77.5,39.5C 78.5736,40.8846 79.9069,42.0513 81.5,43C 79.9751,44.0086 78.3084,44.5086 76.5,44.5C 76.2623,42.3551 75.2623,40.6885 73.5,39.5C 72.6099,41.8261 72.4433,44.1594 73,46.5C 72,45.1667 71,43.8333 70,42.5C 69.5172,43.448 69.3505,44.448 69.5,45.5C 69.6495,46.552 69.4828,47.552 69,48.5C 68.1853,46.3772 67.1853,44.3772 66,42.5C 65.6667,45.5 65.3333,48.5 65,51.5C 63.9072,47.8312 63.0738,44.1645 62.5,40.5C 62.1703,34.1318 62.5037,27.7985 63.5,21.5C 65.7885,26.5278 67.6219,31.8611 69,37.5C 69.3148,34.6285 69.8148,31.7952 70.5,29C 69.7669,26.1652 69.1003,23.3319 68.5,20.5 Z"/></g>
<g><path style="opacity:1" fill="#503027" d="M 76.5,44.5 C 76.5,44.8333 76.5,45.1667 76.5,45.5C 75.5489,46.9187 75.2155,48.5853 75.5,50.5C 75.2062,52.2755 75.0395,54.2755 75,56.5C 73.8867,54.6707 72.3867,53.8374 70.5,54C 71.7206,59.7889 71.7206,65.6222 70.5,71.5C 69.6852,66.3325 69.0186,60.9991 68.5,55.5C 68.766,53.3403 69.766,51.6736 71.5,50.5C 70.9724,48.6639 70.3058,46.9972 69.5,45.5C 69.3505,44.448 69.5172,43.448 70,42.5C 71,43.8333 72,45.1667 73,46.5C 72.4433,44.1594 72.6099,41.8261 73.5,39.5C 75.2623,40.6885 76.2623,42.3551 76.5,44.5 Z"/></g>
<g><path style="opacity:1" fill="#673b28" d="M 46.5,40.5 C 47.1667,40.5 47.8333,40.5 48.5,40.5C 51.0451,43.0748 53.7118,43.0748 56.5,40.5C 56.3396,43.8835 56.673,47.2169 57.5,50.5C 57.4841,52.516 56.4841,53.516 54.5,53.5C 54.5,51.1667 54.5,48.8333 54.5,46.5C 49.5052,45.5823 47.1719,47.5823 47.5,52.5C 46.603,53.5981 45.7697,53.5981 45,52.5C 44.2604,49.8243 43.9271,47.1576 44,44.5C 45.9776,45.8163 47.4776,45.3163 48.5,43C 47.6195,42.2917 46.9528,41.4584 46.5,40.5 Z"/></g>
<g><path style="opacity:1" fill="#dcaf94" d="M 77.5,39.5 C 80.1085,39.4003 82.4418,40.0669 84.5,41.5C 84.8333,42.1667 85.1667,42.8333 85.5,43.5C 86.1217,44.6266 86.955,45.6266 88,46.5C 88.4992,51.1548 88.6658,55.8215 88.5,60.5C 88.5,63.1667 88.5,65.8333 88.5,68.5C 88.0291,69.9008 87.3624,71.2342 86.5,72.5C 84.9713,71.2371 83.3046,70.2371 81.5,69.5C 81.5,69.1667 81.5,68.8333 81.5,68.5C 81.7828,67.7109 82.2828,67.0442 83,66.5C 83.6667,60.8333 83.6667,55.1667 83,49.5C 80.6938,48.2699 78.5271,46.9366 76.5,45.5C 76.5,45.1667 76.5,44.8333 76.5,44.5C 78.3084,44.5086 79.9751,44.0086 81.5,43C 79.9069,42.0513 78.5736,40.8846 77.5,39.5 Z"/></g>
<g><path style="opacity:1" fill="#98573c" d="M 101.5,50.5 C 101.5,53.8333 101.5,57.1667 101.5,60.5C 100.833,61.8333 100.167,63.1667 99.5,64.5C 96.6946,63.6805 93.6946,63.1805 90.5,63C 89.9341,62.0053 89.2674,61.172 88.5,60.5C 88.6658,55.8215 88.4992,51.1548 88,46.5C 86.955,45.6266 86.1217,44.6266 85.5,43.5C 87.13,41.9739 87.9633,39.9739 88,37.5C 90.2436,35.0062 92.5769,35.0062 95,37.5C 96.7131,42.1918 98.8797,46.5252 101.5,50.5 Z"/></g>
<g><path style="opacity:1" fill="#a16344" d="M 54.5,53.5 C 52.5,53.5 50.5,53.5 48.5,53.5C 48.5,52.8333 48.1667,52.5 47.5,52.5C 47.1719,47.5823 49.5052,45.5823 54.5,46.5C 54.5,48.8333 54.5,51.1667 54.5,53.5 Z"/></g>
<g><path style="opacity:1" fill="#ba7e6a" d="M 76.5,45.5 C 78.5271,46.9366 80.6938,48.2699 83,49.5C 83.6667,55.1667 83.6667,60.8333 83,66.5C 82.2828,67.0442 81.7828,67.7109 81.5,68.5C 80.7321,69.2625 80.2321,70.2625 80,71.5C 79.3333,69.1667 79.3333,66.8333 80,64.5C 81.1971,66.8832 82.0305,66.5499 82.5,63.5C 81.6381,59.5474 81.3048,55.5474 81.5,51.5C 79.8561,51.2865 78.3561,51.6198 77,52.5C 76.7216,51.5842 76.2216,50.9175 75.5,50.5C 75.2155,48.5853 75.5489,46.9187 76.5,45.5 Z"/></g>
<g><path style="opacity:1" fill="#3d2a25" d="M 36.5,31.5 C 36.4476,35.1981 36.1143,38.8648 35.5,42.5C 33.0709,55.6234 28.5709,68.2901 22,80.5C 21.5172,79.552 21.3505,78.552 21.5,77.5C 22.5587,74.3821 23.8921,71.3821 25.5,68.5C 30.4102,55.3925 33.7435,41.7258 35.5,27.5C 36.4287,28.6888 36.762,30.0222 36.5,31.5 Z"/></g>
<g><path style="opacity:1" fill="#3c2721" d="M 43.5,21.5 C 45.6208,21.3253 47.6208,21.6586 49.5,22.5C 49.5,23.5 49.5,24.5 49.5,25.5C 47.1944,25.9926 44.861,26.3259 42.5,26.5C 42.5642,30.2198 43.0642,33.8865 44,37.5C 44.3768,38.9423 45.2101,39.9423 46.5,40.5C 46.9528,41.4584 47.6195,42.2917 48.5,43C 47.4776,45.3163 45.9776,45.8163 44,44.5C 43.9271,47.1576 44.2604,49.8243 45,52.5C 45.7697,53.5981 46.603,53.5981 47.5,52.5C 48.1667,52.5 48.5,52.8333 48.5,53.5C 47.8333,55.1667 47.1667,56.8333 46.5,58.5C 46.719,57.325 46.3857,56.325 45.5,55.5C 43.9293,57.8822 43.096,60.5488 43,63.5C 42.3457,62.3044 41.8457,62.3044 41.5,63.5C 42.0331,67.7685 40.3665,71.1018 36.5,73.5C 35.2706,68.2077 34.7706,62.8743 35,57.5C 36,57.1667 37,56.8333 38,56.5C 39.4381,55.0997 40.2714,53.433 40.5,51.5C 41.6842,47.7732 42.3508,43.9399 42.5,40C 42.8906,36.329 41.8906,33.1623 39.5,30.5C 38.4695,29.4477 37.8029,28.1143 37.5,26.5C 39,23.5 40.5,20.5 42,17.5C 42.21,19.0581 42.71,20.3915 43.5,21.5 Z"/></g>
<g><path style="opacity:1" fill="#855d46" d="M 17.5,62.5 C 16.6602,71.1384 16.3268,79.805 16.5,88.5C 13.8333,86.5 11.5,84.1667 9.5,81.5C 11.3109,81.428 12.6443,80.5947 13.5,79C 13.1897,72.527 9.85633,70.027 3.5,71.5C 2.06054,69.412 1.39387,67.0786 1.5,64.5C 2.11742,64.3893 2.61742,64.056 3,63.5C 3.11163,59.4939 4.2783,55.8272 6.5,52.5C 6.16667,51.8333 5.83333,51.1667 5.5,50.5C 7.1353,49.3192 8.80197,49.3192 10.5,50.5C 11.3184,53.1071 11.8184,55.7737 12,58.5C 12.3879,57.572 13.0546,56.9054 14,56.5C 16.8175,57.4334 17.9842,59.4334 17.5,62.5 Z"/></g>
<g><path style="opacity:1" fill="#271e1e" d="M 56.5,40.5 C 56.8333,40.5 57.1667,40.5 57.5,40.5C 58.3261,45.3165 58.8261,50.3165 59,55.5C 60.9247,62.0161 63.9247,68.0161 68,73.5C 69.3825,77.0878 70.5492,80.7544 71.5,84.5C 72.2975,84.0431 72.6309,83.3764 72.5,82.5C 72.3932,80.6214 72.8932,80.2881 74,81.5C 74.49,80.2068 74.6567,78.8734 74.5,77.5C 75.5,77.5 76.5,77.5 77.5,77.5C 77.3921,82.8699 77.7255,88.2032 78.5,93.5C 72.9052,97.1402 66.9052,99.8069 60.5,101.5C 53.8333,101.5 47.1667,101.5 40.5,101.5C 34.3281,99.7117 28.3281,97.2117 22.5,94C 20.0038,92.669 18.0038,90.8356 16.5,88.5C 16.3268,79.805 16.6602,71.1384 17.5,62.5C 18.2239,59.9174 19.0572,57.2507 20,54.5C 20.6667,53.1667 21.3333,53.1667 22,54.5C 22.6368,52.6969 23.8035,51.3636 25.5,50.5C 26.7199,50.8869 27.3865,51.7202 27.5,53C 25.1854,54.9858 23.852,57.4858 23.5,60.5C 23.0909,63.8107 21.9242,66.8107 20,69.5C 19.5026,72.146 19.3359,74.8127 19.5,77.5C 19.9518,81.1629 20.4518,84.8296 21,88.5C 21.6596,83.5161 23.6596,79.1827 27,75.5C 27.3076,76.3081 27.8076,76.9747 28.5,77.5C 29.3785,73.4114 30.5452,69.4114 32,65.5C 32.3333,69.5 32.6667,73.5 33,77.5C 33.3333,76.5 33.6667,75.5 34,74.5C 35.6625,76.1579 36.4959,78.1579 36.5,80.5C 35.325,80.281 34.325,80.6143 33.5,81.5C 34.5175,82.8524 35.8508,83.8524 37.5,84.5C 34.9324,87.2249 35.099,89.5582 38,91.5C 39.4222,85.5218 40.7556,79.5218 42,73.5C 43.3333,72.8333 44.3333,71.8333 45,70.5C 45.3918,66.4724 45.8918,62.4724 46.5,58.5C 47.1667,56.8333 47.8333,55.1667 48.5,53.5C 50.5,53.5 52.5,53.5 54.5,53.5C 56.4841,53.516 57.4841,52.516 57.5,50.5C 56.673,47.2169 56.3396,43.8835 56.5,40.5 Z"/></g>
<g><path style="opacity:1" fill="#3f2b25" d="M 75.5,50.5 C 76.2216,50.9175 76.7216,51.5842 77,52.5C 78.3561,51.6198 79.8561,51.2865 81.5,51.5C 81.3048,55.5474 81.6381,59.5474 82.5,63.5C 82.0305,66.5499 81.1971,66.8832 80,64.5C 79.3333,66.8333 79.3333,69.1667 80,71.5C 80.2321,70.2625 80.7321,69.2625 81.5,68.5C 81.5,68.8333 81.5,69.1667 81.5,69.5C 81.1365,72.5627 80.4698,75.5627 79.5,78.5C 79.5939,80.6885 80.2606,82.6885 81.5,84.5C 80.6072,87.0841 80.2739,89.7508 80.5,92.5C 79.8333,92.8333 79.1667,93.1667 78.5,93.5C 77.7255,88.2032 77.3921,82.8699 77.5,77.5C 76.5,77.5 75.5,77.5 74.5,77.5C 74.6567,78.8734 74.49,80.2068 74,81.5C 72.8932,80.2881 72.3932,80.6214 72.5,82.5C 71.3126,79.0542 70.6459,75.3875 70.5,71.5C 71.7206,65.6222 71.7206,59.7889 70.5,54C 72.3867,53.8374 73.8867,54.6707 75,56.5C 75.0395,54.2755 75.2062,52.2755 75.5,50.5 Z"/></g>
<g><path style="opacity:1" fill="#a97c60" d="M 88.5,60.5 C 89.2674,61.172 89.9341,62.0053 90.5,63C 93.6946,63.1805 96.6946,63.6805 99.5,64.5C 99.2671,67.5418 98.2671,70.2084 96.5,72.5C 95.2223,72.7822 94.2223,73.4489 93.5,74.5C 93.2283,71.2678 91.5616,69.2678 88.5,68.5C 88.5,65.8333 88.5,63.1667 88.5,60.5 Z"/></g>
<g><path style="opacity:1" fill="#7f553e" d="M 25.5,68.5 C 23.8921,71.3821 22.5587,74.3821 21.5,77.5C 20.8333,77.5 20.1667,77.5 19.5,77.5C 19.3359,74.8127 19.5026,72.146 20,69.5C 21.9242,66.8107 23.0909,63.8107 23.5,60.5C 24.3635,59.537 25.0302,59.537 25.5,60.5C 24.484,63.1337 24.484,65.8004 25.5,68.5 Z"/></g>
<g><path style="opacity:1" fill="#593728" d="M 62.5,40.5 C 63.0738,44.1645 63.9072,47.8312 65,51.5C 65.3333,48.5 65.6667,45.5 66,42.5C 67.1853,44.3772 68.1853,46.3772 69,48.5C 69.4828,47.552 69.6495,46.552 69.5,45.5C 70.3058,46.9972 70.9724,48.6639 71.5,50.5C 69.766,51.6736 68.766,53.3403 68.5,55.5C 69.0186,60.9991 69.6852,66.3325 70.5,71.5C 70.6459,75.3875 71.3126,79.0542 72.5,82.5C 72.6309,83.3764 72.2975,84.0431 71.5,84.5C 70.5492,80.7544 69.3825,77.0878 68,73.5C 63.9247,68.0161 60.9247,62.0161 59,55.5C 58.8261,50.3165 58.3261,45.3165 57.5,40.5C 57.3691,39.6236 57.7025,38.9569 58.5,38.5C 59.3283,43.1315 59.8283,47.7982 60,52.5C 60.3333,48.8333 60.6667,45.1667 61,41.5C 61.3826,40.944 61.8826,40.6107 62.5,40.5 Z"/></g>
<g><path style="opacity:1" fill="#262022" d="M 88.5,68.5 C 91.5616,69.2678 93.2283,71.2678 93.5,74.5C 92.6993,76.0418 92.366,77.7085 92.5,79.5C 89.2297,84.4397 85.2297,88.7731 80.5,92.5C 80.2739,89.7508 80.6072,87.0841 81.5,84.5C 80.2606,82.6885 79.5939,80.6885 79.5,78.5C 80.4698,75.5627 81.1365,72.5627 81.5,69.5C 83.3046,70.2371 84.9713,71.2371 86.5,72.5C 87.3624,71.2342 88.0291,69.9008 88.5,68.5 Z"/></g>
<g><path style="opacity:0.973" fill="#dbcaae" d="M 96.5,72.5 C 95.9213,75.3311 94.588,77.6644 92.5,79.5C 92.366,77.7085 92.6993,76.0418 93.5,74.5C 94.2223,73.4489 95.2223,72.7822 96.5,72.5 Z"/></g>
<g><path style="opacity:1" fill="#513e31" d="M 3.5,71.5 C 9.85633,70.027 13.1897,72.527 13.5,79C 12.6443,80.5947 11.3109,81.428 9.5,81.5C 7.01164,78.5342 5.01164,75.2009 3.5,71.5 Z"/></g>
<g><path style="opacity:1" fill="#553427" d="M 35.5,42.5 C 35.3345,46.5138 35.5012,50.5138 36,54.5C 37.6147,53.6138 39.1147,52.6138 40.5,51.5C 40.2714,53.433 39.4381,55.0997 38,56.5C 37,56.8333 36,57.1667 35,57.5C 34.7706,62.8743 35.2706,68.2077 36.5,73.5C 40.3665,71.1018 42.0331,67.7685 41.5,63.5C 41.8457,62.3044 42.3457,62.3044 43,63.5C 43.096,60.5488 43.9293,57.8822 45.5,55.5C 46.3857,56.325 46.719,57.325 46.5,58.5C 45.8918,62.4724 45.3918,66.4724 45,70.5C 44.3333,71.8333 43.3333,72.8333 42,73.5C 40.7556,79.5218 39.4222,85.5218 38,91.5C 35.099,89.5582 34.9324,87.2249 37.5,84.5C 35.8508,83.8524 34.5175,82.8524 33.5,81.5C 34.325,80.6143 35.325,80.281 36.5,80.5C 36.4959,78.1579 35.6625,76.1579 34,74.5C 33.6667,75.5 33.3333,76.5 33,77.5C 32.6667,73.5 32.3333,69.5 32,65.5C 30.5452,69.4114 29.3785,73.4114 28.5,77.5C 27.8076,76.9747 27.3076,76.3081 27,75.5C 23.6596,79.1827 21.6596,83.5161 21,88.5C 20.4518,84.8296 19.9518,81.1629 19.5,77.5C 20.1667,77.5 20.8333,77.5 21.5,77.5C 21.3505,78.552 21.5172,79.552 22,80.5C 28.5709,68.2901 33.0709,55.6234 35.5,42.5 Z"/></g>
<g><path style="opacity:1" fill="#6f6d6e" d="M 47.5,82.5 C 51.2644,82.5883 54.7644,83.5883 58,85.5C 58.7772,88.4294 58.6105,91.2628 57.5,94C 52.8333,94.6667 48.1667,94.6667 43.5,94C 42.5562,91.2809 42.2229,88.4475 42.5,85.5C 45.285,86.0838 46.9517,85.0838 47.5,82.5 Z"/></g>
</svg>
